<mxfile host="65bd71144e">
    <diagram id="caRi3P7_dfb37zm4IYcI" name="Page-1">
        <mxGraphModel dx="1048" dy="719" grid="1" gridSize="10" guides="1" tooltips="1" connect="1" arrows="1" fold="1" page="1" pageScale="1" pageWidth="850" pageHeight="1100" math="0" shadow="0">
            <root>
                <mxCell id="0"/>
                <mxCell id="1" parent="0"/>
                <mxCell id="4" value="" style="edgeStyle=none;html=1;" parent="1" source="2" target="3" edge="1">
                    <mxGeometry relative="1" as="geometry"/>
                </mxCell>
                <mxCell id="2" value="" style="ellipse;whiteSpace=wrap;html=1;fillColor=#0c0404;opacity=90;" parent="1" vertex="1">
                    <mxGeometry x="10" y="140" width="60" height="60" as="geometry"/>
                </mxCell>
                <mxCell id="6" value="" style="edgeStyle=none;html=1;" parent="1" source="3" target="5" edge="1">
                    <mxGeometry relative="1" as="geometry"/>
                </mxCell>
                <mxCell id="21" value="" style="edgeStyle=none;html=1;" parent="1" source="3" target="20" edge="1">
                    <mxGeometry relative="1" as="geometry"/>
                </mxCell>
                <mxCell id="33" style="edgeStyle=none;html=1;entryX=0;entryY=0.5;entryDx=0;entryDy=0;" parent="1" source="3" target="20" edge="1">
                    <mxGeometry relative="1" as="geometry">
                        <mxPoint x="80" y="380" as="targetPoint"/>
                        <Array as="points">
                            <mxPoint x="120" y="280"/>
                        </Array>
                    </mxGeometry>
                </mxCell>
                <mxCell id="3" value="Explorando" style="whiteSpace=wrap;html=1;" parent="1" vertex="1">
                    <mxGeometry x="200" y="140" width="120" height="60" as="geometry"/>
                </mxCell>
                <mxCell id="10" value="" style="edgeStyle=none;html=1;" parent="1" source="5" target="9" edge="1">
                    <mxGeometry relative="1" as="geometry"/>
                </mxCell>
                <mxCell id="26" style="edgeStyle=none;html=1;" parent="1" source="5" target="3" edge="1">
                    <mxGeometry relative="1" as="geometry">
                        <mxPoint x="520" y="300" as="targetPoint"/>
                        <Array as="points">
                            <mxPoint x="520" y="300"/>
                        </Array>
                    </mxGeometry>
                </mxCell>
                <mxCell id="38" style="edgeStyle=none;html=1;" parent="1" source="5" target="20" edge="1">
                    <mxGeometry relative="1" as="geometry">
                        <mxPoint x="410" y="420" as="targetPoint"/>
                        <Array as="points">
                            <mxPoint x="480" y="360"/>
                        </Array>
                    </mxGeometry>
                </mxCell>
                <mxCell id="5" value="Batalhando" style="whiteSpace=wrap;html=1;" parent="1" vertex="1">
                    <mxGeometry x="460" y="140" width="120" height="60" as="geometry"/>
                </mxCell>
                <mxCell id="7" value="Rolou dados" style="text;html=1;align=center;verticalAlign=middle;resizable=0;points=[];autosize=1;strokeColor=none;fillColor=none;" parent="1" vertex="1">
                    <mxGeometry x="90" y="140" width="90" height="30" as="geometry"/>
                </mxCell>
                <mxCell id="8" value="Encontrou Zumbi" style="text;html=1;align=center;verticalAlign=middle;resizable=0;points=[];autosize=1;strokeColor=none;fillColor=none;" parent="1" vertex="1">
                    <mxGeometry x="330" y="140" width="120" height="30" as="geometry"/>
                </mxCell>
                <mxCell id="9" value="" style="ellipse;whiteSpace=wrap;html=1;gradientColor=default;gradientDirection=radial;" parent="1" vertex="1">
                    <mxGeometry x="740" y="130" width="80" height="80" as="geometry"/>
                </mxCell>
                <mxCell id="11" value="Perdeu a batalha" style="text;html=1;align=center;verticalAlign=middle;resizable=0;points=[];autosize=1;strokeColor=none;fillColor=none;rotation=0;" parent="1" vertex="1">
                    <mxGeometry x="600" y="140" width="120" height="30" as="geometry"/>
                </mxCell>
                <mxCell id="28" style="edgeStyle=none;html=1;" parent="1" source="20" target="5" edge="1">
                    <mxGeometry relative="1" as="geometry"/>
                </mxCell>
                <mxCell id="30" style="edgeStyle=none;html=1;entryX=0.5;entryY=1;entryDx=0;entryDy=0;" parent="1" source="20" target="9" edge="1">
                    <mxGeometry relative="1" as="geometry">
                        <Array as="points">
                            <mxPoint x="670" y="380"/>
                        </Array>
                    </mxGeometry>
                </mxCell>
                <mxCell id="20" value="Escapando" style="whiteSpace=wrap;html=1;" parent="1" vertex="1">
                    <mxGeometry x="200" y="430" width="120" height="60" as="geometry"/>
                </mxCell>
                <mxCell id="23" value="Chave: true" style="text;html=1;align=center;verticalAlign=middle;resizable=0;points=[];autosize=1;strokeColor=none;fillColor=none;" parent="1" vertex="1">
                    <mxGeometry x="185" y="270" width="90" height="30" as="geometry"/>
                </mxCell>
                <mxCell id="27" value="Ganhou a batalha" style="text;html=1;align=center;verticalAlign=middle;resizable=0;points=[];autosize=1;strokeColor=none;fillColor=none;rotation=0;" parent="1" vertex="1">
                    <mxGeometry x="520" y="240" width="120" height="30" as="geometry"/>
                </mxCell>
                <mxCell id="29" value="Encontrou Zumbi" style="text;html=1;align=center;verticalAlign=middle;resizable=0;points=[];autosize=1;strokeColor=none;fillColor=none;rotation=-45;" parent="1" vertex="1">
                    <mxGeometry x="305" y="305" width="120" height="30" as="geometry"/>
                </mxCell>
                <mxCell id="31" value="Zumbis mortos :&lt;br&gt;&amp;nbsp;2 &lt;br&gt;ou mais" style="text;html=1;align=center;verticalAlign=middle;resizable=0;points=[];autosize=1;strokeColor=none;fillColor=none;rotation=0;" parent="1" vertex="1">
                    <mxGeometry x="180" y="290" width="110" height="60" as="geometry"/>
                </mxCell>
                <mxCell id="34" value="10 rodadas jogadas: true" style="text;html=1;align=center;verticalAlign=middle;resizable=0;points=[];autosize=1;strokeColor=none;fillColor=none;rotation=-35;" parent="1" vertex="1">
                    <mxGeometry x="25" y="250" width="160" height="30" as="geometry"/>
                </mxCell>
                <mxCell id="36" value="Chave: F" style="text;html=1;align=center;verticalAlign=middle;resizable=0;points=[];autosize=1;strokeColor=none;fillColor=none;" parent="1" vertex="1">
                    <mxGeometry x="225" y="110" width="70" height="30" as="geometry"/>
                </mxCell>
                <mxCell id="37" value="Chave: T" style="text;html=1;align=center;verticalAlign=middle;resizable=0;points=[];autosize=1;strokeColor=none;fillColor=none;" parent="1" vertex="1">
                    <mxGeometry x="505" y="350" width="70" height="30" as="geometry"/>
                </mxCell>
                <mxCell id="39" value="Ganhou a batalha" style="text;html=1;align=center;verticalAlign=middle;resizable=0;points=[];autosize=1;strokeColor=none;fillColor=none;rotation=0;" parent="1" vertex="1">
                    <mxGeometry x="480" y="335" width="120" height="30" as="geometry"/>
                </mxCell>
                <mxCell id="40" value="Chave: F" style="text;html=1;align=center;verticalAlign=middle;resizable=0;points=[];autosize=1;strokeColor=none;fillColor=none;" parent="1" vertex="1">
                    <mxGeometry x="545" y="260" width="70" height="30" as="geometry"/>
                </mxCell>
                <mxCell id="41" value="Chave: T" style="text;html=1;align=center;verticalAlign=middle;resizable=0;points=[];autosize=1;strokeColor=none;fillColor=none;rotation=-15;" parent="1" vertex="1">
                    <mxGeometry x="400" y="445" width="70" height="30" as="geometry"/>
                </mxCell>
                <mxCell id="42" value="Escapou" style="text;html=1;align=center;verticalAlign=middle;resizable=0;points=[];autosize=1;strokeColor=none;fillColor=none;rotation=-15;" vertex="1" parent="1">
                    <mxGeometry x="390" y="430" width="70" height="30" as="geometry"/>
                </mxCell>
            </root>
        </mxGraphModel>
    </diagram>
</mxfile>